<svg id="mosaic-map-svg" version="1.1" xmlns="http://www.w3.org/2000/svg" xmlns:xlink="http://www.w3.org/1999/xlink" x="0px" y="0px" width="250px" height="260px" viewBox="0 0 250 260" enable-background="new 0 0 250 260" xml:space="preserve">

    <path id="shadow" opacity="0.7" fill-rule="evenodd" clip-rule="evenodd" fill="#EFEFEF" d="M73.325,32.639l-17.268,11.98l-6.731-12.389
        l-15.59,3.315l0.235,3.845l4.22,0.688l-0.694,2.793l-4.759,0.522l-0.053,5.455l3.83,5.935l-3.144,18.449L16.347,78.68L9.45,92.777
        l4.804,13.349l10.469,3.595l4.758-4.02l0.348,8.893l12.524,1.279l18.311-8.362l3.36,14.637l25.915,11.579l2.96,14.802l15.874,10.78
        l-2.258,11.827l0.93,15.323l12.011,1.629l3.3,9.164l5.976,0.174l-1.798,9.938l4.75,2.61l-0.408,6.1l-9.545,6.946l-12.722,13.101
        l2.213,1.923l1.988-1.402l6.723,6.102l15.295,9.687l-1.911,2.383l0.347,4.83l5.289-4.369l0.868-4.82l12.171-8.642l2.959-8.317
        l7.185-6.622l2.317-6.151l-1.154-10.513l18.066-14.045l21.967-5.22l6.783-4.82l-0.521-6.327l7.826-9.869l4.01-8.998l2.729-2.103
        l1.683-12.088l0.472-19.326l4.17-2.845l2.763-10.037l12.332-12.246l1.338-13.199L243.665,78.4l-8.05-0.174l-10.033-7.848
        l-11.421-6.048l-7.894,0.523l-11.889-3.716l-2.615,1.28l-2.735-0.583l-2.667-5.125l-20.636-6.386l-11.995-7.614l2.257-5.804
        l-5.617-4.744l-2.207-10.617l-1.919-2.218l-9.096,13.592l-10.898-0.522l-0.582-1.514l-7.087,0.06l-0.347,4.134l-7.366-0.175
        l-9.388,3.663l-6.488-5.897l1.979-9.491l-3.014-4.532l-0.695-3.725l-2.328-0.409l-3.708,4.238l-11.058,4.586l-8.581-2.792H65.26
        l3.135,5.35l2.207,5.857L73.325,32.639z"></path>
    <path id="country" fill-rule="evenodd" clip-rule="evenodd" fill="#FFFFFF" stroke="#DCDCDC" stroke-width="4" stroke-linecap="round" stroke-miterlimit="10" d="
        M67.844,20.126l-17.268,11.98l-6.731-12.389l-15.591,3.315l0.234,3.845l4.222,0.688l-0.695,2.792l-4.759,0.523l-0.053,5.456
        l3.829,5.935L27.89,60.719l-17.024,5.448L3.969,80.265l4.804,13.349l10.468,3.596L24,93.188l0.348,8.894l12.523,1.278l18.31-8.362
        l3.361,14.637l25.914,11.58l2.96,14.801l15.874,10.778l-2.259,11.828l0.93,15.324l12.011,1.629l3.301,9.165l5.976,0.173
        l-1.799,9.938l4.751,2.612l-0.408,6.099l-9.546,6.946l-12.722,13.102l2.214,1.923l1.988-1.403l6.722,6.103l15.295,9.685l-1.91,2.385
        l0.346,4.83l5.29-4.37l0.868-4.819l12.17-8.643l2.96-8.317l7.184-6.621l2.318-6.151l-1.155-10.514l18.067-14.044l21.965-5.221
        l6.785-4.82l-0.521-6.327l7.826-9.868l1.275-9.067l2.729-2.104l1.683-12.086l0.114-16.77l4.169-2.846l5.498-9.969l12.691-14.802
        l1.336-13.199l-3.248-10.686l-8.052-0.174L220.1,57.865l-11.419-6.048l-7.896,0.523l-11.889-3.716l-2.614,1.279l-2.733-0.583
        l-2.668-5.124l-20.637-6.387l-11.995-7.614l2.257-5.804l-5.618-4.744l-2.206-10.617l-1.918-2.219l-9.096,13.592l-10.9-0.521
        l-0.581-1.515l-7.087,0.061l-0.348,4.134l-7.365-0.174l-9.388,3.663l-6.489-5.897l1.98-9.491l-3.015-4.534l-0.695-3.724
        l-2.327-0.409l-3.71,4.237L70.687,10.82l-8.581-2.792h-2.327l3.135,5.35l2.205,5.857L67.844,20.126z"></path>

    <polygon id="sul" class="regiao region-trigger" data-region="sul" fill="#FFFFFF" points="123.705,193.828 128.163,196.138 127.601,204.472 117.466,211.85 108.109,221.656 115.61,228.751
        131.923,238.958 129.41,242.98 131.924,241.783 132.59,236.805 144.89,228.165 148.01,219.825 155.029,213.346 157.01,208.006
        155.93,196.786 160.962,193.044 158.029,189.684 156.59,189 154.057,189.003 152.991,185.94 150.89,184.672 150.949,180.35
        149.51,178.98 148.439,178 144.198,178 142.79,177 137.915,177 134.449,176.484 132.276,175.929 129.812,177.06 128.182,178.502
        126.703,180.457 125.511,183.007 "></polygon>
    <polygon id="nordeste" class="regiao region-trigger" data-region="nordeste" fill="#FFFFFF" points="236.962,67 229.493,67 218.648,59.047 207.902,53.46 200.607,54.146 189.172,50.491
        186.414,51.857 181.98,50.842 179.525,45.658 172.993,43.1 173.087,46.502 172.378,50.086 165.587,61.794 161.758,64.682
        158.878,67.836 161.006,68.068 163.407,69.281 165.297,70.745 165.056,74.721 164.345,76.862 162.462,78.162 162.462,79.92
        163.81,81.382 165.309,82.501 167.064,84.623 167.602,85.94 168.216,85.5 170.059,85.532 170.509,86.494 167.678,88.865
        167.062,90.852 169.436,94.129 170.547,97.173 171.786,99.022 174.277,99.543 169.216,105.512 170.462,107.525 170.462,110.926
        172.543,114.105 172.38,116 172.171,118.083 172.962,119 172.962,121.458 172.607,122.917 173.88,124.75 173.963,125.833
        173.462,127.667 174.005,128.083 174.921,129 175.463,128.917 176.088,127.875 178.005,126.792 179.338,125.542 181.962,124
        186.88,124 187.296,125.792 188.046,126.417 192.546,126.167 194.421,127.417 196.463,128.542 198.546,128.75 200.588,130
        202.005,131.723 203.712,132 205.87,132 208.695,132.703 210.368,134.25 211.432,135.641 207.868,139.984 207.273,141.859
        206.54,142.922 208.087,145.016 209.837,146.875 211.273,147.734 211.354,147.312 214.07,145.156 215.588,134 215.671,116.333
        220.505,113.167 225.838,103.375 238.213,88.875 239.716,76.761 "></polygon>
    <polygon id="sudeste" class="regiao region-trigger" data-region="sudeste" fill="#FFFFFF" points="197.669,176.859 202.888,172.746 202.062,166.732 210.023,156.755 210.963,149.345 209.237,147.741
        207.265,145.8 205.166,142.855 206.358,141.151 206.992,139.318 208.694,137.076 210.249,135.723 208.256,133.632 205.871,133.076
        203.845,133.044 201.525,132.586 200.022,130.626 198.226,129.613 196.363,129.482 193.684,128.241 192.269,127.286
        187.868,127.522 186.496,126.326 186.201,125 182.542,125 180.451,126.117 178.61,127.72 176.891,128.775 175.909,129.842
        174.563,130.2 173.462,128.861 171.864,127.947 171.237,128.045 170.784,128.733 169.083,129.319 168.299,131.182 168.756,133.044
        168.299,134.383 166.64,135.335 164.962,136.309 164.962,137 166.469,138.696 166.95,140.169 164.493,143.391 165.978,144.953
        165.962,147 164.687,148.545 163.482,149.723 162.292,150.835 161.165,150.719 159.79,149.969 155.618,149.984 152.759,151
        148.712,150.938 146.681,154.453 144.931,156.297 144.962,159.641 143.978,160.984 141.293,162.761 140.049,164.454
        139.056,166.578 137.165,170.297 135.899,172.141 134.056,173.531 133.103,175.062 138.04,176.016 142.915,176 144.564,177
        148.962,177 150.196,178.422 151.977,179.729 151.959,184.196 153.806,185.344 154.707,188 156.962,188 158.481,188.91
        161.603,192.25 175.024,181.797 "></polygon>
    <polygon id="centro-oeste" class="regiao region-trigger" data-region="centro-oeste" fill="#FFFFFF" points="124.524,182.991 126.113,180.199 127.415,177.953 129.228,176.25 131.942,175.104 133.243,172.922
        135.087,171.562 136.103,170.109 138.216,166.066 139.215,163.877 140.149,162.375 143.121,160.375 143.978,159.328
        144.087,155.812 145.899,153.875 148.149,150 152.962,150 155.399,149 159.962,149 161.509,149.781 161.978,149.828
        163.071,148.844 164.259,148.125 164.993,146.812 164.978,145.375 163.149,143.391 165.087,141.297 165.884,140.203
        165.618,139.125 164.483,138.268 164.259,136.25 166.165,134.453 167.509,133.766 167.759,133.094 167.353,131.156 168.337,128.625
        170.103,127.906 170.806,126.969 172.04,127.016 172.587,127.297 172.993,125.156 171.399,123.109 171.978,121.406 172.04,119.598
        171.29,118.203 171.353,117.016 167.556,116.984 166.368,118.219 161.333,118.938 157.774,116.812 155.399,116.031 152.524,118.391
        151.587,117.258 149.837,116.754 147.399,113.814 145.462,114.563 145.071,112.804 144.962,104.75 147.151,99.023 147.359,97.774
        142.062,96 135.918,96.006 108.303,93.666 103.462,90.312 102.149,85.938 100.399,81.413 98.993,83.516 97.962,85.812
        97.962,91.014 80.063,91 79.959,92.106 78.962,93.812 78.962,98 80.712,102.375 88.899,103.812 90.149,105.438 89.271,107.562
        89.009,108.812 91.017,110.812 90.771,113.562 86.147,119.664 89.302,134.75 105.416,145.974 103.149,158.632 103.868,172.203
        115.478,173.75 118.712,182.781 "></polygon>
    <polygon id="norte" class="regiao region-trigger" data-region="norte" fill="#FFFFFF" points="172.039,43.542 160.208,39.583 145.807,31 148.134,25.016 143.212,20.75 141.046,9.917
        132.712,22.5 119.295,21.583 118.629,20.333 113.962,20 113.962,24.25 105.474,24.219 95.556,28.054 87.283,21.203 89.178,11.343
        85.962,7 85.962,3.688 83.132,7.721 70.553,12.761 63.271,10.457 66.615,17.657 71.958,19.673 49.789,34.506 42.487,21.833
        29.962,25 29.962,25.29 34.479,26.26 33.13,32.253 29.274,32.688 29.181,35.734 33.118,41.859 29.636,62.218 12.211,67.803
        6.019,80.47 10.196,92.115 18.838,95.135 25.753,89.37 26.335,100.051 36.714,101.305 56.465,92.355 60.109,108.3 85.333,119.287
        88.154,115.784 90.217,113.375 90.445,111.424 88.262,109.246 88.715,107.296 89.621,105.805 88.795,104.543 84.39,103.625
        80.512,103.052 79.502,100.873 77.962,98.35 77.962,96.514 77.962,93.761 78.962,91.926 78.962,91 96.962,91 96.962,85.712
        98.293,83.382 100.531,80.455 101.282,82.519 102.689,85.709 103.967,89.799 108.333,93.176 117.857,93.736 127.38,94.875
        137.018,96 142.062,96 147.836,97.686 147.568,99.213 146.597,101.368 145.462,104.772 145.462,113.031 145.794,113.984
        147.649,113.166 148.883,114.87 150.243,116.35 151.604,116.702 152.511,117.743 155.369,115.5 157.729,116.349 161.333,118.445
        166.008,117.828 167.297,116.5 171.862,116.5 172.543,114.105 170.462,110.926 170.462,107.525 169.216,105.512 174.277,99.543
        171.786,99.022 170.547,97.173 169.436,94.129 167.062,90.852 167.975,88.52 170.509,86.494 170.059,85.532 168.216,85.5
        167.602,85.94 167.064,84.623 165.309,82.501 163.81,81.382 162.462,79.92 162.462,78.162 164.345,76.862 165.056,74.721
        165.18,72.682 165.297,70.745 163.125,69.062 160.472,68.019 158.068,67.796 160.792,65.756 162.834,63.487 165.104,61.56
        166.915,58.724 168.391,56.115 170.434,52.712 171.861,50.104 172.587,46.361 "></polygon>

    <path class="regiao region-trigger" data-region="sul" opacity="0.4" fill="none" stroke="#CACACA" stroke-miterlimit="10" d="M127.439,204.255c0,0,3.896-0.055,4.136,0.006
        c0.239,0.061,3.297,0.31,3.297,0.31l2.517,0.861l2.218,0.942l2.339,1.465l1.859,1.609l1.376,1.839l1.013,2.213h4.269v0.222
        l-1.227,1.925l0.511,2.347 M156.012,197.061l-1.993-0.095l-1.66,0.534h-0.66l-0.929-1.344l-2.075-0.656h-1.584l-0.731,0.772
        l-2.17,1.228h-2.747v1.788l-0.678,0.659l-0.337,1.553h-1.596l-1.396-1.084l-1.931-0.865l-1.398-0.677l-1.832-0.312l-1.736,0.276
        l-2.364,0.622l-0.385,0.045"></path>
    <path class="regiao region-trigger" data-region="sudeste" opacity="0.4" fill="none" stroke="#CACACA" stroke-miterlimit="10" d="M183.449,180.414l0.258-3.664l-2.005-2.25h-2.477
        l-1.974,1.703l-1.765-0.199l-1.624,1.496h-1.978l-1.199-1.492l-1.717-1.312l-1.508-0.185v-1.835l1.684-1.413l1.123-1.706
        l-0.572-2.057h-2.399l-0.427-1.16l-0.372-0.375l0.357-2.459l-0.59-0.924l0.408-1.802l-1.171-1.326l-2.669-0.273l-1.508,1.202
        l-3.778-0.278l-1.907,1.768l-0.984-0.636l-0.424-1.483l-5.368-0.164l-0.705-0.089h-2.884l-1.376,0.318 M202.455,167.372
        l-2.352-0.721l-1.264-2.151h-2.178l-1.2,1.608v2.896l-1.065,1.835l-2.509,1.263l-5.471-0.032l-0.537,0.43h-2.982l-2.695,2.15
         M209.319,146.92l-4.154,0.35l-1.703,1.549v1.24l0.816,1.456l-1.251,1.834l1.032,1.607l-0.63,1.665l-0.974,1.495l-1.202,2.588
        l-1.946,0.474l-0.683,1.806l-0.443,2.009"></path>
    <path class="regiao region-trigger" data-region="nordeste" opacity="0.4" fill="none" stroke="#CACACA" stroke-miterlimit="10" d="M223.965,107.538l-1.573-1.238l-1.459-1.126
        l-0.324-1.801l1.262-0.962l0.498-1.516l1.094-1.627v-1.301l-1.664-1.464l0.25-1.465l-0.676-1.802l-2.028-1.691l-1.463-0.902
        l-2.589-1.355l-2.027-0.796l-1.461,1.11l-2.03,1.77l-1.575,0.948l-1.443,1.182h-0.81l-1.126-0.819l-1.172-2.169l-1.192-0.92
        l-1.129,0.631l-1.914,1.266l-0.916,1.012h-2.124l-1.014,1.157l-1.014,1.349l-1.351,0.081l-0.789-0.741l-1.968-0.846h-1.861
        l-1.464,0.994l0.114,1.445l0.45,1.915l-0.564,0.902l-0.789,1.463l-1.013,1.126l-1.403,0.113l-1.75,0.338l-1.012,1.126l-1.466,0.226
        l-1.579-0.563l-1.128-1.914l-1.244-1.914l-1.251,0.788l-1.059,1.352l-0.806,1.013l-1.553,1.69l-1.645,1.914l0.544,1.014l0.702,0.999
        v1.253v2.148l1.314,2.035l0.767,1.144l-0.589,2.208 M221.868,94.806l2.087,0.914l1.153,1.78h1.76l0.984,0.609l1.927,0.971
         M220.69,92.67l1.178-0.974l1.098-0.764l0.989-0.382l1.229,0.764l0.995,1.147l1.604,1.3l1.996-0.382l2.057-0.765l1.3-1.606
        l1.607-0.458l2.14,0.458 M202.445,89.804l0.405-1.211l1.073-0.843l1.453-1.086l0.536-2.147l-0.459-2.222l0.85-0.919l1.158-0.537
        v-0.842l0.641-1.453l-1.132-1.3l-1.933-1.682l-1.039-1.453l-0.189-3.441l0.439-3.134l-0.556-1.147l-0.231-1.147V63.48l0.194-2.523
        l-1.005-1.759l-1.297-1.529l0.33-2.065l0.585-1.835 M206.962,79.5h5.299l1.3,2.152l0.919,1.848h2.369l3.211,1h1.378l1.681-1.64
        l1.912-1.546l1.148-0.353l1.223,0.741l-0.765,2.435l-0.812,0.953l1.577,1.41h1.376l1.454-0.978l1.146-1.644l3.977-0.259l0.994-0.97
        l1.3-1.289l2.243-1.389 M226.274,64.55l-1.455,1.147l-1.357,0.535v2.524l-1.035,1.071l-1.119,2.446l-1.846,1.3v1.682l-0.805,1.3
        l-0.195,2.524v3.364l-1.801,0.65 M239.713,76.321l-2.143-0.924l-4.128-0.624l-1.835-0.333l-1.071,1.25l-0.841,1.811h-1.223
        l-1.765-0.281l-1.228-1.275l0.981-1.453V73.5h-1.585l-1.906,0.954l-0.609,1.046l-1.671-0.003l-1.229-0.241 M198.32,53.004
        l-0.775,2.676l-2.021,0.996l-1.597,1.605l-2.43,2.523l-0.114,2.294l0.078,2.217v2.601l-1.414,1.904l0.955,2.747l1.223,2.435
        l-0.688,2.652l-1.987,0.484l-1.147-0.637h-3.06l-1.984,2.09c0,0-1.756,2.166-1.985,2.166s-2.364,0.994-2.364,0.994l-1.974,0.918
        l-0.894,3.211l-0.945,1.657l-1.734,2.473v1.147l1,1.606v3.747l0.473,1.992 M173.797,99.386l-2.011-0.363l-1.239-1.849l-1.111-3.044
        l-1.459-1.982l-0.915-1.295l0.616-1.987l0.918-1.07l1.913-1.301l-0.383-0.994h-1.91l-0.614,0.44l-0.537-1.318l-1.756-2.122
        l-1.882-1.405l-0.965-1.176v-1.759l1.883-1.3l0.711-2.141l0.241-3.976l-2.172-1.682l-2.119-0.995l-1.978-0.688"></path>
    <path class="regiao region-trigger" data-region="centro-oeste" opacity="0.4" fill="none" stroke="#CACACA" stroke-miterlimit="10" d="M144.329,156.362l-1.706-1.019l-1.37-0.739
        l-1.774-0.601l-2.664-1.045l-2.309-0.924l-1.382-1.379l-1.196-2.35l-1.449-0.807h-2.638l-1.377-0.947l0.976-1.62l-0.976-2.016
        l-1.555,1.23l-2.208,0.559l-0.366-0.735l-2.294,0.529h-2.294l-3.326-0.729l-1.397-0.271h-0.783l-2.752,0.25l-1.491,1.1l-1.032,1.01
        l-2.179,0.16 M146.462,115v1.313l-1.797,3.375l-0.336,1.831l-0.43,2.982l-0.777,2.983l-1.21,1.146l-2.252,1.95l-1.485,2.294
        l-2.057,1.148l-2.157,2.293l-1.222,2.523l-0.653,1.836l-1.624,2.638V148"></path>
    <path class="regiao region-trigger" data-region="norte" opacity="0.4" fill="none" stroke="#CACACA" stroke-miterlimit="10" d="M147.829,97.512l0.187-2.154l1.113-2.269
        l1.917-2.496l2.946-3.062l0.338-3.742l-1.136-1.815l0.792-1.701l0.227-2.154l4.196-2.949l1.475-2.949l-0.227-2.722l-1.588-1.702
        l0.959-0.417l0,0 M79.666,90.55l-3.327-0.744l-2.065-2.005l-1.261-2.081l-0.917-2.037l-4.358,0.818l-1.033,1.272l-1.262,1.229
        l-0.918,2.302L63.607,91.5h-2.523l-0.947,0.83l-1.29,1.403l-2.582,0.883 M49.843,95.94l-4.817-3.102l-2.639-0.913L39.75,90.32
        l-6.309-3.619l-4.245-2.345l-3.785-1.262l-5.391-1.262l-4.817-0.573l-3.327-1.492L9.238,78.62l-1.72-1.949 M67.835,21.203
        l2.654,0.297h1.973v5.275l3,2.064v1.607l-1.453,1.146l0.594,2.524l1.859,2.293v2.294l-1.839,1.262l2.062,1.491l2.12,2.638
        l0.89-1.606l1.017-2.753l1.714-1.262l1.716,1.033l2.637,0.459l0.916-3.557l1.262-2.409l2.22-0.229l4.284,0.114V28 M99.926,80.729
        l-0.105-1.786l-0.359-1.24v-2.294l0.976-1.146l1.024-1.721v-1.721l1.604-2.523l1.319-3.747l1.519-2.103l1.046-2.868l0.811-2.293
        l1.036-2.294l1.723-3.441l0.574-1.376l-1.49-1.491l-3.211-1.835l-2.294-1.147l-2.18-1.606l-2.179-2.408l-2.31-2.294l-1.966-2.409V33
         M120.729,21.222l0.573,2.083l2.315,1.85l3.649,1.843l2.639,2.182l0.688,2.869l0.689,2.066l3.326,5.282l1.146,3.103h2.179
        l1.262-0.635l0.918-2.785l1.146-1.565l2.409-2.158l1.721-1.251l0.572-1.252l0.469-1.819"></path>

    <path id="border-norte" class="label label-norte regiao region-trigger" data-region="norte" fill="none" stroke="#D9D9D9" stroke-miterlimit="10" d="M172.513,43.1l0.074,3.262l-0.725,3.743l-1.43,2.608l-2.042,3.403
        l-1.476,2.608l-1.812,2.836l-2.269,1.927l-2.042,2.269l-2.723,2.041l2.937,0.271l2.119,0.995l2.172,1.682l-0.241,3.976l-0.711,2.141
        l-1.883,1.3v1.759l1.348,1.461l1.499,1.119l1.756,2.122l0.537,1.318l0.614-0.44l1.843,0.032l0.45,0.962l-1.913,1.301l-0.918,1.07
        l-0.616,1.987l2.374,3.277l1.111,3.044l1.239,1.849l2.491,0.521l-5.062,5.969l1.246,2.013v3.401l2.081,3.179l-0.681,2.395h-4.565
        l-1.289,1.328l-4.675,0.617l-2.356-1.281l-1.247-0.815l-2.36-0.849l-2.858,2.243l-0.907-1.042l-1.36-0.352l-1.36-1.479l-1.233-1.704
        l-1.855,0.818l-0.332-0.953v-8.259l2.106-5.56l0.19-2.275 M147.299,97.201l-5.236-1.701h-5.046l-9.635-0.875l-9.521-0.888
        l-9.52-0.561l-4.359-3.376l-1.262-4.09l-1.376-3.19l-0.688-2.063l-2.113,2.927l-1.081,2.33V90.5h-18v1.426l-1,1.835v2.752v1.835
        l1.29,2.523l0.76,2.18l3.877,0.573l4.405,0.917l0.826,1.262l-0.906,1.491l-0.453,1.95l2.183,2.178l-0.228,1.951l-2.063,2.409
        l-2.524,3.88"></path>
    <path id="border-sudeste" class="label label-sudeste regiao region-trigger" data-region="sudeste" fill="none" stroke="#D9D9D9" stroke-miterlimit="10" d="M131.924,175.615l1.671-2.4l1.826-1.342l1.104-1.547l1.01-1.923
        l1.003-1.84l0.847-2.068l1.3-1.987l2.871-1.837l0.907-1.147v-2.446v-0.917l1.784-1.989l1.311-2.297l0.854-1.374h4.205l1.53-0.5
        l1.376-0.5h4.437l1.375,0.73l0.765,0.095l1.147-1.021l1.34-0.855l0.877-1.541v-1.76l-1.682-1.76l1.643-1.757l0.977-1.301
        l-0.355-1.452l-1.131-0.996l-0.145-1.451l1.683-1.606l1.457-0.688l0.383-1.07l-0.459-1.911l0.46-1.224l0.382-0.917l1.682-0.718
        l0.689-0.795h0.841l1.759,0.948l1.071,1.162l0.917-0.185l0.766-1.085l1.91-1.078l1.377-1.228l0.917-0.646l1.761-0.889h4.204
        l0.382,1.531l0.92,0.917l4.587-0.229l1.604,1.147l2.296,1.07l2.063,0.229l1.835,1.07l1.453,1.859l1.912,0.405h2.217l2.601,0.664
        l1.529,1.367l0.842,1.103l-1.53,1.85l-1.835,2.304l-0.612,1.839l-0.918,1.302l1.76,2.372l1.835,1.912l2.296,1.453 M161.333,192.764
        l-1.759-2.102l-1.484-1.454l-1.484-0.708h-2.154l-1.06-2.875l-1.93-1.291v-4.316l-1.717-1.35l-1.064-1.168h-4.323l-1.565-1.012
        l-2.57,0.012h-2.288l-3.602-0.549l-2.142-0.572"></path>
    <path id="border-sul" class="label label-sul regiao region-trigger" data-region="sul" fill="none" stroke="#D9D9D9" stroke-linejoin="round" stroke-miterlimit="10" d="M132.19,175.379l-2.675,1.265l-1.706,1.596
        l-1.508,2.029l-1.204,2.723 M161.333,192.764l-1.759-2.102l-1.484-1.454l-1.484-0.708h-2.154l-1.06-2.875l-1.93-1.291v-4.316
        l-1.717-1.35l-1.064-1.168h-4.323l-1.565-1.012l-2.57,0.012h-2.288l-3.602-0.549l-2.142-0.572"></path>
    <path id="border-nordeste" class="label label-nordeste regiao region-trigger" data-region="nordeste" fill="none" stroke="#D9D9D9" stroke-miterlimit="10" d="M172.509,127.926l0.953-2.174v-0.792l-1.55-1.929l0.55-1.588v-1.988
        l-0.652-1.333l0.053-1.621 M172.513,43.1l0.074,3.262l-0.725,3.743l-1.43,2.608l-2.042,3.403l-1.476,2.608l-1.812,2.836
        l-2.269,1.927l-2.042,2.269l-2.723,2.041l2.937,0.271l2.119,0.995l2.172,1.682l-0.241,3.976l-0.711,2.141l-1.883,1.3v1.759
        l1.348,1.461l1.499,1.119l1.756,2.122l0.537,1.318l0.614-0.44l1.843,0.032l0.45,0.962l-1.913,1.301l-0.918,1.07l-0.616,1.987
        l2.374,3.277l1.111,3.044l1.239,1.849l2.491,0.521l-1.864,2.365l-3.197,3.604l1.246,2.013v3.401l2.081,3.179l-0.589,2.208
         M172.712,127.828l0.933,0.62l1.071,1.162l0.917-0.185l0.766-1.085l1.91-1.078l1.377-1.228l0.917-0.646l1.761-0.889h4.204
        l0.382,1.531l0.92,0.917l4.587-0.229l1.604,1.147l2.296,1.07l2.063,0.229l1.835,1.07l1.453,1.859l1.912,0.405h2.217l2.601,0.664
        l1.529,1.367l0.842,1.103l-1.53,1.85l-1.835,2.304l-0.612,1.839l-0.918,1.302l1.76,2.372l1.835,1.912l2.251,1.7"></path>
    <path id="border-centro-oeste" class="label label-centro-oeste regiao region-trigger" data-region="centro-oeste" fill="none" stroke="#D9D9D9" stroke-linejoin="round" stroke-miterlimit="10" d="M172.762,128.012l0.7-2.26v-0.792
        l-1.55-1.929l0.55-1.589v-1.988l-0.652-1.333l0.053-1.621h-2.729h-1.836l-1.289,1.328l-4.675,0.617l-2.356-1.281l-1.247-0.814
        l-2.36-0.85l-1.724,1.379l-1.135,0.864l-0.907-1.042l-1.36-0.352l-1.36-1.479l-1.233-1.704l-1.855,0.818l-0.332-0.953v-3.67v-2.322
        v-2.267l1.135-3.404l0.972-2.155l0.19-2.275 M132.19,175.379l-2.675,1.265l-1.706,1.596l-1.508,2.029l-1.204,2.723 M173.212,128.141
        l-1.326-0.641h-0.841l-0.689,0.795l-1.682,0.718l-0.382,0.917l-0.46,1.225l0.459,1.911l-0.383,1.07l-1.457,0.688l-1.683,1.606
        l0.145,1.451l1.131,0.996l0.355,1.452l-0.977,1.301l-1.643,1.757l1.682,1.76v1.76l-0.877,1.541l-1.34,0.855l-1.147,1.021
        l-0.765-0.095l-1.375-0.73h-4.437l-1.376,0.5l-1.53,0.5h-4.205l-0.854,1.374l-1.311,2.297l-1.784,1.989v0.917v2.446l-0.906,1.147
        l-2.869,1.837l-1.299,1.987l-0.843,2.068l-0.994,1.84l-0.994,1.923l-1.071,1.547l-1.761,1.342l-1.541,2.4 M147.299,97.201
        l-5.236-1.701h-5.046l-9.635-0.875l-9.521-0.888l-9.52-0.561l-4.359-3.376l-1.262-4.09l-1.376-3.19l-0.688-2.063l-2.113,2.927
        l-1.081,2.33V90.5h-18v1.426l-1,1.835v2.752v1.835l1.29,2.523l0.76,2.18l3.877,0.573l4.405,0.917l0.826,1.262l-0.906,1.491
        l-0.453,1.95l2.183,2.178l-0.228,1.951l-2.063,2.408l-2.524,3.881"></path>


    <image xlink:href="https://s.glbimg.com/jo/g1/static/live/menu_web_mosaico_g1/img/mapa-pin.png" class="region-trigger label label-norte" x="100" y="45" width="9" height="11" data-region="norte"></image>
    <text text-anchor="middle" class="region-trigger label label-norte" id="label-norte" x="105" y="65" data-region="norte">
        Norte
    </text>
    <image xlink:href="https://s.glbimg.com/jo/g1/static/live/menu_web_mosaico_g1/img/mapa-pin.png" class="region-trigger label label-nordeste" x="199" y="75" width="9" height="11" data-region="nordeste"></image>
    <text text-anchor="middle" class="region-trigger label label-nordeste" id="label-nordeste" x="203" y="95" data-region="nordeste">
        Nordeste
    </text>
    <image xlink:href="https://s.glbimg.com/jo/g1/static/live/menu_web_mosaico_g1/img/mapa-pin.png" class="region-trigger label label-centro-oeste" x="124" y="115" width="9" height="11" data-region="centro-oeste"></image>
    <text text-anchor="middle" class="region-trigger label label-centro-oeste" id="label-centro-oeste" x="127" y="135" data-region="centro-oeste">
        Centro-
    </text>
    <text text-anchor="middle" class="region-trigger label label-centro-oeste" id="label-centro-oeste" x="127" y="144" data-region="centro-oeste">
        oeste
    </text>
    <image xlink:href="https://s.glbimg.com/jo/g1/static/live/menu_web_mosaico_g1/img/mapa-pin.png" class="region-trigger label label-sudeste" x="173" y="147" width="9" height="11" data-region="sudeste"></image>
    <text text-anchor="middle" class="region-trigger label label-sudeste" id="label-sudeste" x="177" y="167" data-region="sudeste">
        Sudeste
    </text>
    <image xlink:href="https://s.glbimg.com/jo/g1/static/live/menu_web_mosaico_g1/img/mapa-pin.png" class="region-trigger label label-sul" x="133" y="197" width="9" height="11" data-region="sul"></image>
    <text text-anchor="middle" class="region-trigger label label-sul" id="label-sul" x="138" y="217" data-region="sul">
        Sul
    </text>
</svg>