<svg version="1.1" id="mosaic-map-svg" xmlns="http://www.w3.org/2000/svg" xmlns:xlink="http://www.w3.org/1999/xlink" x="0px"
	 y="0px" width="250px" height="260px" viewBox="0 0 250 260" enable-background="new 0 0 250 260" xml:space="preserve">
<polygon id="norte" class="regiao region-trigger" data-region="norte" fill="#ffffff" stroke="#D9D9D9" stroke-linejoin="round" stroke-miterlimit="10" points="160.3,37.812 148.305,30.198
	150.562,24.394 144.943,19.65 142.736,9.03 140.818,6.811 131.725,20.403 120.825,19.882 120.243,18.367 113.157,18.428 
	112.807,22.562 105.443,22.388 96.055,26.051 89.566,20.154 91.546,10.663 88.531,6.129 87.836,2.405 85.509,1.996 81.799,6.233 
	70.742,10.82 62.162,8.028 59.834,8.028 62.97,13.378 65.175,19.235 67.9,20.126 50.632,32.106 43.9,19.717 28.31,23.032 
	28.543,26.877 32.766,27.565 32.07,30.357 27.312,30.88 27.259,36.336 31.088,42.271 27.945,60.719 10.922,66.167 4.025,80.265 
	8.828,93.614 19.297,97.21 24.056,93.188 24.404,102.082 36.927,103.36 55.236,94.998 58.598,109.635 84.512,121.215 
	85.685,119.662 88.209,115.781 90.271,113.373 90.5,111.422 88.316,109.244 88.77,107.294 89.676,105.803 88.85,104.541 
	84.445,103.624 80.568,103.051 79.808,100.871 78.518,98.348 78.518,96.513 78.518,93.761 79.518,91.926 79.518,90.5 97.518,90.5 
	97.518,85.714 98.599,83.384 100.711,80.457 101.399,82.52 102.775,85.71 104.037,89.8 108.397,93.176 117.917,93.737 
	127.438,94.625 137.072,95.5 142.118,95.5 147.354,97.201 147.632,99.213 146.659,101.368 145.523,104.772 145.523,107.039 
	145.523,109.361 145.523,113.031 145.855,113.984 147.71,113.166 148.941,114.87 150.305,116.349 151.663,116.701 152.568,117.743 
	153.704,116.879 155.43,115.5 157.788,116.35 159.036,117.164 161.393,118.445 166.064,117.828 167.354,116.5 171.712,116.5 
	172.598,114.106 170.518,110.927 170.518,107.526 169.271,105.513 172.468,101.909 174.329,99.544 171.841,99.023 170.602,97.174 
	169.491,94.13 167.116,90.853 167.732,88.866 168.65,87.796 170.562,86.495 170.113,85.533 168.271,85.501 167.657,85.941 
	167.12,84.623 165.363,82.501 163.863,81.382 162.518,79.921 162.518,78.162 164.398,76.862 165.109,74.721 165.352,70.745 
	163.18,69.063 161.061,68.068 158.122,67.797 160.848,65.756 162.889,63.487 165.157,61.56 166.971,58.724 168.445,56.116 
	170.486,52.713 171.917,50.105 172.645,46.362 172.568,43.1 172.27,41.517 "/>
<path id="nordeste" class="regiao region-trigger" data-region="nordeste" fill="#ffffff" stroke="#D9D9D9" stroke-linejoin="round" stroke-miterlimit="10" d="M172.509,127.926l0.953-2.174v-0.792
	l-1.55-1.929l0.55-1.588v-1.988l-0.651-1.333l0.053-1.621 M172.712,127.828l0.933,0.62l1.071,1.162l0.917-0.185l0.766-1.085
	l1.91-1.078l1.377-1.228l0.918-0.646l1.763-0.889h4.202l0.384,1.531l0.92,0.917l4.587-0.229l1.604,1.147l2.297,1.07l2.062,0.229
	l1.835,1.07l1.453,1.86l1.912,0.404h2.217l2.603,0.664l1.529,1.367l0.842,1.103l-1.529,1.851l-1.836,2.306l-0.611,1.839
	l-0.918,1.305l1.76,2.369l1.836,1.912l2.25,1.7l1.449-0.56l2.729-2.104l1.685-12.086l0.113-16.77l4.17-2.846l5.496-9.969
	l12.69-14.802l1.336-13.199l-3.248-10.686l-8.052-0.174l-11.249-8.495L208.68,51.82l-7.896,0.523l-11.89-3.716l-2.613,1.279
	l-2.733-0.583l-2.668-5.124l-8.668-2.683l0.302,1.583l0.073,3.262l-0.726,3.743l-1.43,2.608l-2.041,3.403l-1.479,2.608l-1.812,2.836
	l-2.27,1.927l-2.042,2.269l-2.724,2.041l2.938,0.271l2.119,0.995l2.172,1.682l-0.24,3.976l-0.712,2.141l-1.883,1.3v1.759
	l1.349,1.461l1.5,1.119l1.756,2.122l0.537,1.318l0.612-0.44l1.845,0.032l0.448,0.962l-1.911,1.301l-0.918,1.07l-0.617,1.987
	l2.375,3.277l1.109,3.044l1.238,1.849l2.49,0.521l-1.862,2.365l-3.197,3.604l1.246,2.013v3.401l2.081,3.179l-0.589,2.208"/>
<path id="centro-oeste" class="regiao region-trigger" data-region="centro-oeste" fill="#ffffff" stroke="#D9D9D9" stroke-linejoin="round" stroke-miterlimit="10" d="M173.212,128.141l-1.325-0.641h-0.842
	l-0.689,0.795l-1.682,0.718l-0.382,0.917l-0.46,1.224l0.459,1.912l-0.383,1.07l-1.457,0.688l-1.684,1.605l0.146,1.449l1.131,0.996
	l0.354,1.452l-0.979,1.301l-1.645,1.759l1.684,1.76v1.761l-0.877,1.54l-1.34,0.855l-1.146,1.02l-0.767-0.096l-1.375-0.729h-4.438
	l-1.375,0.5l-1.531,0.5h-4.202l-0.854,1.374l-1.312,2.297l-1.784,1.988v0.918v2.443l-0.904,1.147l-2.869,1.837l-1.301,1.986
	l-0.843,2.068l-0.994,1.84l-0.993,1.924l-1.07,1.547l-1.762,1.342l-1.541,2.4l-0.953,0.223l-1.934,1.018l-1.577,1.512l-1.418,1.906
	l-1.204,2.725l-1.847,1.92l-5.976-0.174l-3.301-9.164l-12.011-1.631l-0.899-14.809l2.228-12.343l-15.874-10.778l-2.96-14.801
	l1.173-1.553l2.524-3.881l2.063-2.408l0.228-1.951l-2.183-2.178l0.453-1.95l0.906-1.491l-0.826-1.262l-4.405-0.917l-3.877-0.573
	l-0.76-2.18l-1.29-2.523v-1.835v-2.752l1-1.835V90.5h18v-4.786l1.081-2.33l2.113-2.927l0.688,2.063l1.376,3.19l1.262,4.09
	l4.359,3.376l9.52,0.561l9.521,0.888l9.636,0.875h5.045l5.236,1.701l0.277,2.012l-0.973,2.155l-1.137,3.404v2.267v2.322v3.67
	l0.332,0.953l1.854-0.818l1.232,1.704l1.36,1.479l1.36,0.352l0.905,1.042l1.136-0.864l1.725-1.379l2.359,0.85l1.248,0.814
	l2.354,1.281l4.675-0.617l1.289-1.328h1.836h2.729l-0.053,1.621l0.65,1.333v1.988l-0.55,1.589l1.55,1.929v0.792l-0.7,2.26"/>
<path id="sudeste" class="regiao region-trigger" data-region="sudeste" fill="#ffffff" stroke="#D9D9D9" stroke-linejoin="round" stroke-miterlimit="10" d="M173.143,128.141l-1.326-0.641h-0.842
	l-0.688,0.795l-1.683,0.718l-0.381,0.917l-0.461,1.224l0.459,1.912l-0.383,1.07l-1.457,0.688l-1.684,1.605l0.146,1.449l1.132,0.996
	l0.354,1.452l-0.977,1.301l-1.646,1.759l1.685,1.76v1.761l-0.877,1.54l-1.341,0.855l-1.146,1.02l-0.766-0.096l-1.375-0.729h-4.439
	l-1.375,0.5l-1.531,0.5h-4.203l-0.854,1.374l-1.312,2.297l-1.784,1.988v0.918v2.443l-0.904,1.147l-2.869,1.837l-1.301,1.986
	l-0.842,2.068l-0.994,1.84l-0.994,1.924l-1.07,1.547l-1.762,1.342l-1.326,2.168l1.938,0.572l3.604,0.549h2.286l2.57-0.012
	l1.562,1.012h4.324l1.063,1.168l1.718,1.35v4.316l1.93,1.291l1.061,2.875h2.152l1.484,0.708l1.483,1.454l1.761,2.102l1.211,1.26
	l13.338-10.367l21.965-5.221l6.785-4.82l-0.521-6.326l7.826-9.868l1.273-9.065l-1.449,0.559l-2.25-1.7l-1.836-1.912l-1.761-2.37
	l0.919-1.304l0.61-1.839l1.836-2.305l1.528-1.852l-0.842-1.104l-1.528-1.366l-2.603-0.664h-2.217l-1.912-0.403l-1.453-1.861
	l-1.834-1.07l-2.062-0.229l-2.298-1.07l-1.604-1.147l-4.588,0.229l-0.92-0.917l-0.383-1.531h-4.203l-1.762,0.889l-0.918,0.646
	l-1.377,1.228l-1.91,1.078l-0.766,1.085l-0.916,0.185l-1.072-1.162l-0.932-0.62"/>
<path id="sul" class="regiao region-trigger" data-region="sul" fill="#FFFFFF" stroke="#D9D9D9" stroke-linejoin="round" stroke-miterlimit="10" d="M132.189,175.379l-2.674,1.266
	l-1.707,1.598l-1.51,2.027l-1.204,2.725l-2.397,1.904l-1.249,9.953l4.751,2.61l-0.408,6.101l-9.546,6.944l-11.448,11.791
	l24.945,17.621l-1.91,2.386l0.899,4.373l4.736-3.912l0.867-4.82l12.17-8.643l2.96-8.316l6.854-6.315l2.648-6.456l-1.156-10.515
	l4.73-3.677l-1.212-1.26l-1.759-2.102l-1.484-1.454l-1.484-0.708h-2.151l-1.062-2.875l-1.931-1.291v-4.316l-1.717-1.35l-1.063-1.168
	h-4.324l-1.562-1.012l-2.568,0.012h-2.287l-3.604-0.549L132.189,175.379"/>
<path id="border-sul" opacity="0.4" fill="none" stroke="#CACACA" stroke-miterlimit="10" enable-background="new    " d="M127.439,204.255
	c0,0,3.896-0.055,4.136,0.007c0.239,0.061,3.297,0.309,3.297,0.309l2.517,0.861l2.219,0.942l2.338,1.465l1.859,1.608l1.377,1.84
	l1.012,2.213h4.271v0.223l-1.229,1.924l0.513,2.35 M156.012,197.061l-1.992-0.095l-1.66,0.534H151.7l-0.931-1.344l-2.074-0.656
	h-1.584l-0.73,0.771l-2.17,1.229h-2.747v1.788l-0.678,0.659l-0.339,1.553h-1.596l-1.396-1.084l-1.932-0.865l-1.397-0.677
	l-1.832-0.312l-1.735,0.273l-2.363,0.622l-0.385,0.045"/>
<path id="border-sudeste" opacity="0.4" fill="none" stroke="#CACACA" stroke-miterlimit="10" enable-background="new    " d="M183.449,180.414
	l0.258-3.664l-2.005-2.25h-2.478l-1.976,1.703l-1.767-0.199l-1.625,1.496h-1.978l-1.198-1.492l-1.718-1.312l-1.508-0.184v-1.836
	l1.685-1.412l1.123-1.707l-0.572-2.057h-2.397l-0.427-1.16l-0.372-0.375l0.354-2.459l-0.59-0.924l0.408-1.803l-1.171-1.325
	l-2.669-0.272l-1.508,1.201l-3.778-0.277l-1.907,1.77l-0.984-0.639l-0.424-1.48l-5.367-0.164l-0.703-0.089h-2.887l-1.375,0.315
	 M202.455,167.372l-2.352-0.722l-1.267-2.15h-2.178l-1.2,1.607v2.896l-1.062,1.835l-2.51,1.264l-5.473-0.031l-0.537,0.431h-2.98
	l-2.694,2.149 M209.318,146.92l-4.153,0.35l-1.703,1.549v1.24l0.815,1.457l-1.25,1.834l1.031,1.606l-0.629,1.665l-0.977,1.494
	l-1.202,2.589l-1.944,0.474l-0.685,1.807l-0.44,2.011"/>
<path id="border-centro-oeste" opacity="0.4" fill="none" stroke="#CACACA" stroke-miterlimit="10" enable-background="new    " d="M144.329,156.361
	l-1.706-1.02l-1.37-0.738l-1.774-0.603l-2.664-1.045l-2.309-0.925l-1.382-1.381l-1.196-2.35l-1.449-0.807h-2.638l-1.377-0.947
	l0.976-1.619l-0.976-2.017l-1.555,1.229l-2.208,0.56l-0.366-0.735l-2.294,0.529h-2.294l-3.326-0.729l-1.397-0.271h-0.783
	l-2.752,0.25l-1.491,1.1l-1.032,1.01l-2.179,0.16 M145.795,113.985l0.667,2.328l-1.797,3.375l-0.336,1.831l-0.431,2.982
	l-0.776,2.983l-1.21,1.146l-2.252,1.95l-1.485,2.294l-2.057,1.147l-2.157,2.293l-1.223,2.521l-0.652,1.836l-1.624,2.641V148"/>
<path id="border-nordeste" opacity="0.4" fill="none" stroke="#CACACA" stroke-miterlimit="10" enable-background="new    " d="M223.965,107.538
	l-1.572-1.238l-1.459-1.126l-0.324-1.801l1.264-0.962l0.498-1.516l1.094-1.627v-1.301l-1.664-1.464l0.25-1.465l-0.676-1.802
	l-2.025-1.691l-1.466-0.902l-2.589-1.355l-2.025-0.796l-1.461,1.11l-2.029,1.77L208.2,92.32l-1.443,1.182h-0.81l-1.127-0.819
	l-1.172-2.169l-1.191-0.92l-1.129,0.631l-1.914,1.266l-0.916,1.012h-2.124l-1.015,1.157l-1.014,1.349l-1.353,0.081l-0.789-0.741
	l-1.97-0.846h-1.859l-1.464,0.994l0.112,1.445l0.449,1.915l-0.562,0.902l-0.789,1.463l-1.015,1.126l-1.401,0.113l-1.75,0.338
	l-1.015,1.126l-1.465,0.226l-1.58-0.563l-1.127-1.914l-1.838-1.172 M221.868,94.806l2.087,0.914l1.152,1.78h1.761l0.983,0.609
	l1.928,0.971 M220.689,92.67l1.179-0.974l1.098-0.764l0.989-0.382l1.229,0.764l0.996,1.147l1.604,1.3l1.995-0.382l2.058-0.765
	l1.302-1.606l1.605-0.458l2.141,0.458 M202.445,89.804l0.404-1.211l1.071-0.843l1.453-1.086l0.536-2.147l-0.459-2.222l0.852-0.919
	l1.156-0.537v-0.842l0.643-1.453l-1.131-1.3l-1.936-1.682l-1.039-1.453l-0.188-3.441l0.438-3.134l-0.559-1.147l-0.229-1.147v-1.76
	l0.191-2.523l-1.004-1.759l-1.297-1.529l0.33-2.065l0.584-1.835 M207.68,79.5h4.582l1.299,2.152l0.92,1.848h2.369l3.211,1h1.377
	l1.684-1.64l1.912-1.546l1.146-0.353l1.223,0.741l-0.766,2.435l-0.812,0.953l1.577,1.41h1.375l1.455-0.978l1.146-1.644l3.978-0.259
	l0.994-0.97l1.299-1.289l2.244-1.389 M226.273,64.55l-1.455,1.147l-1.356,0.535v2.524l-1.034,1.071l-1.119,2.446l-1.847,1.3v1.682
	l-0.805,1.3l-0.195,2.524v3.364L216.85,83.5 M239.713,76.321l-2.143-0.924l-4.129-0.624l-1.834-0.333l-1.071,1.25l-0.841,1.811
	h-1.223l-1.768-0.281l-1.229-1.275l0.98-1.453V73.5h-1.585l-1.906,0.954l-0.608,1.046l-1.67-0.003l-1.229-0.241 M198.32,53.004
	l-0.775,2.676l-2.021,0.996l-1.596,1.604l-2.431,2.523l-0.114,2.294l0.078,2.217v2.601l-1.414,1.904l0.955,2.747l1.223,2.435
	l-0.688,2.652l-1.987,0.484l-1.147-0.637h-3.059l-1.984,2.09c0,0-1.756,2.166-1.983,2.166s-2.362,0.994-2.362,0.994l-1.976,0.918
	l-0.896,3.211l-0.943,1.657l-1.734,2.473v1.146l1,1.606v3.747l0.475,1.992"/>
<path id="border-norte" opacity="0.4" fill="none" stroke="#CACACA" stroke-miterlimit="10" enable-background="new    " d="M147.829,97.512
	l0.187-2.154l1.113-2.269l1.917-2.496l2.946-3.062l0.338-3.742l-1.137-1.815l0.793-1.701l0.227-2.154l4.196-2.949l1.475-2.949
	l-0.227-2.722l-1.589-1.702 M79.666,90.55l-3.327-0.744l-2.065-2.005l-1.261-2.081l-0.917-2.037l-4.358,0.818l-1.033,1.272
	l-1.262,1.229l-0.918,2.302L63.607,91.5h-2.523l-0.947,0.83l-1.29,1.403l-2.582,0.883 M49.843,95.94l-4.817-3.102l-2.639-0.913
	L39.75,90.32l-6.309-3.619l-4.245-2.345l-3.785-1.262l-5.391-1.262l-4.817-0.573l-3.327-1.492L9.238,78.62l-1.72-1.949
	 M67.835,21.203l2.654,0.297h1.973v5.275l3,2.064v1.607l-1.453,1.146l0.594,2.524l1.859,2.293v2.294l-1.839,1.262l2.062,1.491
	l2.12,2.638l0.89-1.606l1.017-2.753l1.714-1.262l1.716,1.033l2.637,0.459l0.916-3.557l1.262-2.409l2.22-0.229l4.284,0.114V28
	 M99.926,80.729l-0.105-1.786l-0.359-1.24v-2.294l0.976-1.146l1.024-1.721v-1.721l1.604-2.523l1.319-3.747l1.519-2.103l1.046-2.868
	l0.811-2.293l1.036-2.294l1.723-3.441l0.574-1.376l-1.49-1.491l-3.211-1.835l-2.294-1.147l-2.18-1.606l-2.179-2.408l-2.31-2.294
	l-1.966-2.409V33 M120.729,21.222l0.573,2.083l2.315,1.85l3.648,1.843l2.639,2.182l0.688,2.869l0.689,2.066l3.324,5.282l1.146,3.103
	h2.181l1.262-0.635l0.918-2.785l1.146-1.565l2.409-2.158l1.723-1.251l0.57-1.252l0.471-1.819"/>
<path id="country" fill="none" stroke="#DCDCDC" stroke-width="4" stroke-linecap="round" stroke-miterlimit="10" d="M67.844,20.126
	l-17.268,11.98l-6.731-12.389l-15.591,3.315l0.234,3.845l4.222,0.688l-0.695,2.792l-4.759,0.523l-0.053,5.456l3.829,5.935
	L27.89,60.719l-17.024,5.448L3.969,80.265l4.804,13.349l10.468,3.596L24,93.188l0.348,8.894l12.523,1.278l18.31-8.362l3.361,14.637
	l25.914,11.58l2.96,14.801l15.874,10.778l-2.259,11.828l0.93,15.323l12.011,1.63l3.301,9.165l5.976,0.173l-1.799,9.938l4.751,2.609
	l-0.408,6.102l-9.546,6.943l-12.722,13.104l2.214,1.924l1.988-1.403l6.722,6.103l15.295,9.688l-1.91,2.387l0.346,4.83l5.291-4.369
	l0.867-4.82l12.17-8.643l2.96-8.316l7.185-6.621l2.318-6.151l-1.156-10.515l18.067-14.043l21.966-5.221l6.784-4.82l-0.521-6.327
	l7.826-9.868l1.272-9.066l2.729-2.104l1.684-12.086l0.113-16.77l4.17-2.846l5.496-9.969l12.691-14.802l1.336-13.199l-3.248-10.686
	l-8.053-0.174l-10.031-7.85l-11.418-6.05l-7.896,0.523l-11.89-3.716l-2.613,1.279l-2.733-0.583l-2.668-5.124l-20.637-6.387
	l-11.995-7.614l2.257-5.804l-5.616-4.744l-2.207-10.62l-1.918-2.219l-9.096,13.592l-10.9-0.521l-0.581-1.515l-7.087,0.061
	l-0.348,4.134l-7.365-0.174l-9.388,3.663l-6.489-5.897l1.98-9.491l-3.015-4.534L87.78,2.405l-2.327-0.409l-3.71,4.237L70.687,10.82
	l-8.581-2.792h-2.327l3.135,5.35l2.205,5.857L67.844,20.126z"/>
<g id="shadow">
	<polygon opacity="0.7" fill="#EFEFEF" enable-background="new" points="53.689,97.836 37.117,105.405 22.326,103.896 22.07,97.36
		19.574,99.47 10.667,96.41 14.163,106.126 24.632,109.721 29.39,105.701 29.738,114.594 42.262,115.873 56.354,109.438"/>
	<polygon opacity="0.7" fill="#EFEFEF" enable-background="new" points="119.365,188.088 120.154,190.279 120.775,186.846
		115.762,186.7 112.41,177.395 106.757,176.627 107.354,186.459"/>
	<polygon opacity="0.7" fill="#EFEFEF" enable-background="new" points="82.606,122.62 61.919,113.376 63.933,122.148
		84.334,131.264"/>
	<polygon opacity="0.7" fill="#EFEFEF" enable-background="new" points="100.988,147.71 91.333,141.154 92.808,148.529
		99.91,153.354"/>
	<polygon opacity="0.7" fill="#EFEFEF" enable-background="new" points="243.574,78.4 243.167,78.391 241.932,90.6
		228.965,105.722 223.338,115.928 219.641,118.452 219.514,134.438 217.719,147.332 214.988,149.438 213.751,158.234
		206.078,167.91 206.627,174.584 198.598,180.289 176.676,185.5 159.834,198.59 160.92,208.471 158.266,215.514 151.096,222.12
		148.089,230.566 136.07,239.102 135.219,243.839 129.295,248.73 135.137,252.432 133.225,254.814 133.572,259.645 138.861,255.275
		139.729,250.455 151.9,241.812 154.859,233.496 162.045,226.874 164.361,220.723 163.207,210.21 181.273,196.165 203.24,190.945
		210.023,186.125 209.502,179.798 217.328,169.93 221.338,160.932 224.068,158.828 225.75,146.74 226.223,127.414 230.393,124.569
		233.156,114.532 245.488,102.286 246.826,89.087"/>
	<polygon opacity="0.7" fill="#EFEFEF" enable-background="new" points="125.691,241.664 126.695,240.412 113.127,231.785
		108.917,236.121 111.131,238.044 113.119,236.643 119.842,242.744 126.051,246.678 	"/>
</g>
<image xlink:href="http://s.glbimg.com/jo/g1/static/live/menu_web_mosaico_g1/img/mapa-pin.png" class="region-trigger label label-norte" x="100" y="45" width="9" height="11" data-region="norte"></image>
<text text-anchor="middle" class="region-trigger label label-norte" id="label-norte" x="105" y="65" data-region="norte">
	Norte
</text>
<image xlink:href="http://s.glbimg.com/jo/g1/static/live/menu_web_mosaico_g1/img/mapa-pin.png" class="region-trigger label label-nordeste" x="199" y="75" width="9" height="11" data-region="nordeste"></image>
<text text-anchor="middle" class="region-trigger label label-nordeste" id="label-nordeste" x="203" y="95" data-region="nordeste">
	Nordeste
</text>
<image xlink:href="http://s.glbimg.com/jo/g1/static/live/menu_web_mosaico_g1/img/mapa-pin.png" class="region-trigger label label-centro-oeste" x="124" y="115" width="9" height="11" data-region="centro-oeste"></image>
<text text-anchor="middle" class="region-trigger label label-centro-oeste" id="label-centro-oeste" x="127" y="135" data-region="centro-oeste">
	Centro-oeste
</text>
<image xlink:href="http://s.glbimg.com/jo/g1/static/live/menu_web_mosaico_g1/img/mapa-pin.png" class="region-trigger label label-sudeste" x="173" y="147" width="9" height="11" data-region="sudeste"></image>
<text text-anchor="middle" class="region-trigger label label-sudeste" id="label-sudeste" x="177" y="167" data-region="sudeste">
	Sudeste
</text>
<image xlink:href="http://s.glbimg.com/jo/g1/static/live/menu_web_mosaico_g1/img/mapa-pin.png" class="region-trigger label label-sul" x="133" y="197" width="9" height="11" data-region="sul"></image>
<text text-anchor="middle" class="region-trigger label label-sul" id="label-sul" x="138" y="217" data-region="sul">
	Sul
</text>
</svg>
